<?xml version="1.0" encoding="UTF-8" standalone="no"?>
<!-- Created with Inkscape (http://www.inkscape.org/) -->

<svg
   xmlns:dc="http://purl.org/dc/elements/1.1/"
   xmlns:cc="http://creativecommons.org/ns#"
   xmlns:rdf="http://www.w3.org/1999/02/22-rdf-syntax-ns#"
   xmlns:svg="http://www.w3.org/2000/svg"
   xmlns="http://www.w3.org/2000/svg"
   xmlns:sodipodi="http://sodipodi.sourceforge.net/DTD/sodipodi-0.dtd"
   xmlns:inkscape="http://www.inkscape.org/namespaces/inkscape"
   width="210mm"
   height="297mm"
   viewBox="0 0 210 297"
   version="1.1"
   id="svg8"
   inkscape:version="0.92.1 unknown"
   sodipodi:docname="drawing.svg">
  <defs
     id="defs2" />
  <sodipodi:namedview
     id="base"
     pagecolor="#ffffff"
     bordercolor="#666666"
     borderopacity="1.0"
     inkscape:pageopacity="0.0"
     inkscape:pageshadow="2"
     inkscape:zoom="0.35"
     inkscape:cx="-214.28571"
     inkscape:cy="491.42857"
     inkscape:document-units="mm"
     inkscape:current-layer="layer1"
     showgrid="false"
     showborder="true"
     inkscape:snap-bbox="true"
     inkscape:bbox-nodes="true"
     inkscape:object-paths="true"
     inkscape:window-width="1280"
     inkscape:window-height="742"
     inkscape:window-x="0"
     inkscape:window-y="28"
     inkscape:window-maximized="1" />
  <metadata
     id="metadata5">
    <rdf:RDF>
      <cc:Work
         rdf:about="">
        <dc:format>image/svg+xml</dc:format>
        <dc:type
           rdf:resource="http://purl.org/dc/dcmitype/StillImage" />
        <dc:title></dc:title>
      </cc:Work>
    </rdf:RDF>
  </metadata>
  <g
     inkscape:label="Layer 1"
     inkscape:groupmode="layer"
     id="layer1">
    <path
       style="opacity:1;fill:#ff0000;fill-opacity:1;stroke:none;stroke-width:2.16499996;stroke-miterlimit:4;stroke-dasharray:none;stroke-opacity:1"
       d="M 105,125.06551 A 23.434522,23.434522 0 0 0 81.565255,148.49974 23.434522,23.434522 0 0 0 105,171.93448 23.434522,23.434522 0 0 0 128.43475,148.49974 23.434522,23.434522 0 0 0 105,125.06551 Z m 0.57877,3.95583 c 12.4639,-0.001 22.17209,13.81793 17.91467,25.61807 -3.87056,14.29393 -25.049365,17.78618 -33.706985,6.07818 -10.18676,-11.36825 -0.66671,-32.05721 14.577935,-31.65233 0.40741,-0.0293 0.81233,-0.0439 1.21439,-0.0439 z"
       id="path4485"
       inkscape:connector-curvature="0"
       inkscape:export-xdpi="96"
       inkscape:export-ydpi="96" />
    <path
       style="opacity:1;fill:#ff0000;fill-opacity:1;stroke:none;stroke-width:2.16499996;stroke-miterlimit:4;stroke-dasharray:none;stroke-opacity:1"
       d="m 97.516475,138.74649 c -0.57971,0 -1.15932,0.22242 -1.60352,0.66663 -0.8884,0.8884 -0.8884,2.31863 0,3.20704 l 5.879755,5.87974 -5.879755,5.88026 c -0.8884,0.88841 -0.8884,2.31864 0,3.20704 0.88841,0.88841 2.31864,0.88841 3.20704,0 l 5.879755,-5.88026 5.88025,5.88026 c 0.8884,0.88841 2.31864,0.88841 3.20705,0 0.88839,-0.8884 0.88839,-2.31863 0,-3.20704 l -5.88026,-5.88026 5.88026,-5.87974 c 0.88839,-0.88841 0.88839,-2.31864 0,-3.20704 -0.88841,-0.88841 -2.31864,-0.88841 -3.20705,0 l -5.88025,5.87974 -5.879755,-5.87974 c -0.4442,-0.44421 -1.02381,-0.66663 -1.60352,-0.66663 z"
       id="rect4493"
       inkscape:connector-curvature="0"
       inkscape:export-xdpi="96"
       inkscape:export-ydpi="96" />
  </g>
</svg>
